<svg width="381" height="60" viewBox="0 0 381 60" fill="none" xmlns="http://www.w3.org/2000/svg">
<g clip-path="url(#clip0_18737_10122)">
<path d="M53.6348 23.93C47.443 22.4839 40.4404 22.0233 42.1357 10.7215L54.6576 14.2309L58.9421 15.2717C58.7302 6.79767 51.8013 0 43.2783 0H15.5993C6.97502 0 0 6.9911 0 15.5941V28.7013C0 33.1133 2.368 34.3291 5.33492 35.02H5.31649C11.5083 36.4753 18.511 36.945 16.8156 48.2376L4.29374 44.7283L0.00921403 43.6967C0.184281 52.1431 7.08559 58.95 15.5993 58.95H43.3704C51.9763 58.95 58.9698 51.9589 58.9698 43.3559V30.2395C58.9698 25.8551 56.5925 24.6116 53.6348 23.93ZM29.4757 47.3165C26.7299 39.0636 20.1971 32.3212 11.6373 29.475C20.1971 26.6288 26.7299 19.9048 29.4757 11.6518C32.2307 19.9048 38.7542 26.638 47.3232 29.4842C38.7542 32.3396 32.2307 39.0636 29.4757 47.3165Z" fill="black"/>
<path d="M0.00921403 43.7001H0V43.3777C0 43.4882 0 43.5895 0.00921403 43.7001Z" fill="black"/>
<path d="M224.776 8.60247C224.776 5.86683 226.923 3.78516 229.651 3.78516C232.378 3.78516 234.525 5.86683 234.525 8.60247C234.525 11.3381 232.378 13.4198 229.651 13.4198C226.923 13.4198 224.776 11.3381 224.776 8.60247Z" fill="black"/>
<path d="M233.502 17.6951H225.781V48.0082H233.502V17.6951Z" fill="black"/>
<path d="M239.316 28.7551V48.0152H247.038V31.2605C247.038 22.1693 260.767 22.1693 260.767 31.2605V48.0152H268.488V28.7551C268.488 13.0873 239.298 13.0873 239.298 28.7551H239.316Z" fill="black"/>
<path d="M122.132 20.4876C114.199 13.9017 96.8027 16.6558 96.8027 28.7406V48.0006H104.524V31.2459C104.524 22.1547 118.253 22.1547 118.253 31.2459V48.0006H125.974V31.2459C125.974 22.1547 139.703 22.1547 139.703 31.2459V48.0006H147.425V28.7406C147.425 16.6558 130.029 13.9017 122.095 20.4876H122.123H122.132Z" fill="black"/>
<path d="M288.178 16.9631C278.9 16.9631 271.888 23.7976 271.888 32.8335C271.888 41.8694 278.909 48.7039 288.298 48.7039C295.448 48.7039 301.299 44.8446 303.759 39.1338H295.181C293.734 40.8194 291.339 41.98 288.473 41.98C284.317 41.98 281.157 39.4285 280.162 35.5139H304.229C304.395 34.7402 304.469 33.7914 304.469 32.9625C304.469 23.8068 297.447 16.9723 288.178 16.9723V16.9539V16.9631ZM280.217 29.8584C281.286 26.1095 284.262 23.6686 288.178 23.6686C292.094 23.6686 295.254 26.1648 296.194 29.8584H280.199H280.217Z" fill="black"/>
<path d="M212.669 21.1224C210.228 18.5157 206.846 16.9683 202.746 16.9683C194.361 16.9683 188.003 23.508 188.003 32.0742C188.003 40.6404 194.361 47.1801 202.82 47.1801C206.865 47.1801 210.246 45.6327 212.688 43.0812V45.0984C212.688 50.1552 209.656 53.1856 204.893 53.1856C201.806 53.1856 199.134 51.8961 198.001 49.8144H189.874C191.32 56.0502 197.236 60.0017 204.828 60.0017C214.162 60.0017 220.409 53.9409 220.409 44.73V17.6867H212.688V21.1408V21.1224H212.669ZM204.358 39.9587C199.539 39.9587 195.974 36.5783 195.974 32.0558C195.974 27.5332 199.539 24.2081 204.358 24.2081C209.177 24.2081 212.688 27.5885 212.688 32.0558C212.688 36.5231 209.067 39.9587 204.358 39.9587Z" fill="black"/>
<path d="M381 25.1268V17.6844H374.136V8.62085H366.414V17.6844H359.596C352.299 17.6844 345.01 21.5991 345.01 29.4283V48.016H352.732V31.9337C352.732 27.3835 356.168 25.136 359.596 25.136H366.414V36.6037C366.414 44.4329 373.712 48.3476 381 48.3476V40.9328C377.563 40.9328 374.136 38.6577 374.136 34.1075V25.136H381V25.1084V25.1268Z" fill="black"/>
<path d="M176.163 17.6869V21.2515C176.163 21.2515 176.108 21.1779 176.08 21.1502C167.336 11.663 151.497 19.7225 151.479 32.8297C151.479 45.9368 167.327 53.978 176.08 44.5091C176.108 44.4815 176.136 44.4355 176.163 44.4078V47.9725H183.885V17.6869H176.163ZM167.779 41.2024C163.015 41.2024 159.449 37.5825 159.449 32.8205C159.449 28.0584 163.015 24.4385 167.779 24.4385C172.542 24.4385 176.163 28.0584 176.163 32.8205C176.163 37.5825 172.598 41.2024 167.779 41.2024Z" fill="black"/>
<path d="M91.9655 11.0172H84.2441V47.9991H91.9655V11.0172Z" fill="black"/>
<path d="M318.861 8.10278H328.287L343.619 48.0045H334.884L332.046 40.2581H314.862L312.089 48.0045H303.474L318.861 8.10278ZM329.328 32.9078L323.486 16.89L317.59 32.9078H329.337H329.328Z" fill="black"/>
</g>
<defs>
<clipPath id="clip0_18737_10122">
<rect width="381" height="60" fill="white"/>
</clipPath>
</defs>
</svg>
