<svg width="297" height="57" viewBox="0 0 297 57" fill="none" xmlns="http://www.w3.org/2000/svg">
<path d="M140.532 4.81732C140.532 2.08167 142.679 0 145.406 0C148.134 0 150.281 2.08167 150.281 4.81732C150.281 7.55296 148.134 9.63463 145.406 9.63463C142.679 9.63463 140.532 7.55296 140.532 4.81732Z" fill="white"/>
<path d="M149.258 13.91H141.537V44.2231H149.258V13.91Z" fill="white"/>
<path d="M155.072 24.97V44.23H162.793V27.4753C162.793 18.3841 176.522 18.3841 176.522 27.4753V44.23H184.244V24.97C184.244 9.30217 155.054 9.30217 155.054 24.97H155.072Z" fill="white"/>
<path d="M37.888 16.7024C29.9547 10.1166 12.5586 12.8707 12.5586 24.9554V44.2155H20.28V27.4608C20.28 18.3696 34.0088 18.3696 34.0088 27.4608V44.2155H41.7302V27.4608C41.7302 18.3696 55.4591 18.3696 55.4591 27.4608V44.2155H63.1805V24.9554C63.1805 12.8707 45.7844 10.1166 37.8511 16.7024H37.8787H37.888Z" fill="white"/>
<path d="M203.934 13.178C194.655 13.178 187.644 20.0125 187.644 29.0484C187.644 38.0843 194.665 44.9188 204.054 44.9188C211.204 44.9188 217.055 41.0595 219.515 35.3487H210.937C209.49 37.0343 207.094 38.1949 204.229 38.1949C200.073 38.1949 196.913 35.6434 195.918 31.7288H219.985C220.151 30.9551 220.224 30.0063 220.224 29.1774C220.224 20.0217 213.203 13.1872 203.934 13.1872V13.1688V13.178ZM195.973 26.0733C197.042 22.3244 200.018 19.8835 203.934 19.8835C207.85 19.8835 211.01 22.3797 211.95 26.0733H195.955H195.973Z" fill="white"/>
<path d="M128.425 17.3373C125.984 14.7306 122.602 13.1832 118.502 13.1832C110.117 13.1832 103.759 19.7229 103.759 28.2891C103.759 36.8553 110.117 43.395 118.575 43.395C122.62 43.395 126.002 41.8476 128.444 39.2962V41.3133C128.444 46.3701 125.412 49.4005 120.649 49.4005C117.562 49.4005 114.89 48.111 113.757 46.0293H105.63C107.076 52.2651 112.992 56.2166 120.584 56.2166C129.918 56.2166 136.165 50.1558 136.165 40.9449V13.9016H128.444V17.3557V17.3373H128.425ZM120.114 36.1736C115.295 36.1736 111.729 32.7932 111.729 28.2707C111.729 23.7481 115.295 20.423 120.114 20.423C124.933 20.423 128.444 23.8034 128.444 28.2707C128.444 32.738 124.823 36.1736 120.114 36.1736Z" fill="white"/>
<path d="M296.756 21.3417V13.8993H289.892V4.83575H282.17V13.8993H275.352C268.054 13.8993 260.766 17.814 260.766 25.6432V44.2309H268.487V28.1486C268.487 23.5984 271.924 21.351 275.352 21.351H282.17V32.8186C282.17 40.6479 289.468 44.5625 296.756 44.5625V37.1477C293.319 37.1477 289.892 34.8726 289.892 30.3224V21.351H296.756V21.3233V21.3417Z" fill="white"/>
<path d="M91.9192 13.9018V17.4664C91.9192 17.4664 91.864 17.3927 91.8363 17.3651C83.0922 7.87781 67.2533 15.9374 67.2349 29.0445C67.2349 42.1517 83.083 50.1928 91.8363 40.724C91.864 40.6964 91.8916 40.6503 91.9192 40.6227V44.1873H99.6406V13.9018H91.9192ZM83.5345 37.4173C78.7708 37.4173 75.205 33.7974 75.205 29.0353C75.205 24.2733 78.7708 20.6534 83.5345 20.6534C88.2981 20.6534 91.9192 24.2733 91.9192 29.0353C91.9192 33.7974 88.3534 37.4173 83.5345 37.4173Z" fill="white"/>
<path d="M7.72135 7.23199H0V44.2139H7.72135V7.23199Z" fill="white"/>
<path d="M234.617 4.31763H244.043L259.375 44.2194H250.64L247.802 36.473H230.618L227.845 44.2194H219.229L234.617 4.31763ZM245.084 29.1227L239.242 13.1049L233.345 29.1227H245.093H245.084Z" fill="white"/>
</svg>
